<?xml version="1.0" encoding="UTF-8"?>
<svg xmlns="http://www.w3.org/2000/svg" xmlns:xlink="http://www.w3.org/1999/xlink" width="87px" height="90px" viewBox="0 0 87 90" version="1.1">
<g id="surface1">
<path style="fill:none;stroke-width:12400;stroke-linecap:round;stroke-linejoin:round;stroke:rgb(98.039216%,19.215686%,6.27451%);stroke-opacity:1;stroke-miterlimit:22.9256;" d="M 126309.31636 130683.156674 L 207712.523595 130683.156674 L 207712.523595 262003.148441 L 126309.31636 262003.148441 Z M 126309.31636 130683.156674 " transform="matrix(0.000157012,0,0,0.000156583,0,0.0372177)"/>
<path style="fill:none;stroke-width:12400;stroke-linecap:round;stroke-linejoin:round;stroke:rgb(98.039216%,19.215686%,6.27451%);stroke-opacity:1;stroke-miterlimit:22.9256;" d="M 126309.31636 184493.419258 L 102201.826198 189607.514682 C 96007.022225 191004.535871 93295.240565 195095.81221 93195.725642 200808.631001 L 93195.725642 262102.935668 L 126309.31636 262102.935668 Z M 126309.31636 184493.419258 " transform="matrix(0.000157012,0,0,0.000156583,0,0.0372177)"/>
<path style="fill:none;stroke-width:12400;stroke-linecap:round;stroke-linejoin:round;stroke:rgb(98.039216%,19.215686%,6.27451%);stroke-opacity:1;stroke-miterlimit:22.9256;" d="M 207712.523595 184493.419258 L 231695.620103 189607.514682 C 237890.424076 191004.535871 240602.205736 195095.81221 240801.235582 200808.631001 L 240801.235582 262102.935668 L 207712.523595 262102.935668 Z M 207712.523595 184493.419258 " transform="matrix(0.000157012,0,0,0.000156583,0,0.0372177)"/>
<path style="fill:none;stroke-width:12400;stroke-linecap:round;stroke-linejoin:round;stroke:rgb(98.039216%,19.215686%,6.27451%);stroke-opacity:1;stroke-miterlimit:22.9256;" d="M 159099.483578 227002.778295 L 174897.477647 227002.778295 C 179002.468232 227002.778295 182385.975623 230395.544039 182385.975623 234486.820379 L 182385.975623 262102.935668 L 151586.106871 262102.935668 L 151586.106871 234486.820379 C 151586.106871 230395.544039 154894.978069 227002.778295 159099.483578 227002.778295 Z M 159099.483578 227002.778295 " transform="matrix(0.000157012,0,0,0.000156583,0,0.0372177)"/>
<path style="fill:none;stroke-width:12400;stroke-linecap:round;stroke-linejoin:round;stroke:rgb(98.039216%,19.215686%,6.27451%);stroke-opacity:1;stroke-miterlimit:22.9256;" d="M 149297.263635 165783.314048 L 184600.182665 165783.314048 " transform="matrix(0.000157012,0,0,0.000156583,0,0.0372177)"/>
<path style="fill:none;stroke-width:12400;stroke-linecap:round;stroke-linejoin:round;stroke:rgb(98.039216%,19.215686%,6.27451%);stroke-opacity:1;stroke-miterlimit:22.9256;" d="M 149297.263635 192401.55706 L 184600.182665 192401.55706 " transform="matrix(0.000157012,0,0,0.000156583,0,0.0372177)"/>
<path style="fill:none;stroke-width:12400;stroke-linecap:round;stroke-linejoin:round;stroke:rgb(98.039216%,19.215686%,6.27451%);stroke-opacity:1;stroke-miterlimit:22.9256;" d="M 309590.926292 265296.126958 L 431297.677451 265296.126958 L 370394.54441 160893.739886 Z M 309590.926292 265296.126958 " transform="matrix(0.000157012,0,0,0.000156583,0,0.0372177)"/>
<path style="fill:none;stroke-width:12400;stroke-linecap:round;stroke-linejoin:round;stroke:rgb(98.039216%,19.215686%,6.27451%);stroke-opacity:1;stroke-miterlimit:22.9256;" d="M 365393.919516 265296.126958 L 487100.670675 265296.126958 L 426197.537634 160893.739886 Z M 365393.919516 265296.126958 " transform="matrix(0.000157012,0,0,0.000156583,0,0.0372177)"/>
<path style="fill:none;stroke-width:12400;stroke-linecap:round;stroke-linejoin:round;stroke:rgb(98.039216%,19.215686%,6.27451%);stroke-opacity:1;stroke-miterlimit:22.9256;" d="M 106107.786936 384591.757776 L 227789.659365 384591.757776 L 166911.405054 331904.101505 Z M 106107.786936 384591.757776 " transform="matrix(0.000157012,0,0,0.000156583,0,0.0372177)"/>
<path style="fill:none;stroke-width:12400;stroke-linecap:round;stroke-linejoin:round;stroke:rgb(98.039216%,19.215686%,6.27451%);stroke-opacity:1;stroke-miterlimit:22.9256;" d="M 125786.863013 384591.757776 L 207214.948978 384591.757776 L 207214.948978 453494.838562 L 125786.863013 453494.838562 Z M 125786.863013 384591.757776 " transform="matrix(0.000157012,0,0,0.000156583,0,0.0372177)"/>
<path style="fill:none;stroke-width:12400;stroke-linecap:round;stroke-linejoin:round;stroke:rgb(98.039216%,19.215686%,6.27451%);stroke-opacity:1;stroke-miterlimit:22.9256;" d="M 153203.224374 418993.404555 L 179898.102541 418993.404555 L 179898.102541 453395.051335 L 153203.224374 453395.051335 Z M 153203.224374 418993.404555 " transform="matrix(0.000157012,0,0,0.000156583,0,0.0372177)"/>
<path style="fill:none;stroke-width:12400;stroke-linecap:round;stroke-linejoin:round;stroke:rgb(98.039216%,19.215686%,6.27451%);stroke-opacity:1;stroke-miterlimit:22.9256;" d="M 332280.328798 446409.94539 L 332280.328798 411110.21356 " transform="matrix(0.000157012,0,0,0.000156583,0,0.0372177)"/>
<path style="fill:none;stroke-width:12400;stroke-linecap:round;stroke-linejoin:round;stroke:rgb(98.039216%,19.215686%,6.27451%);stroke-opacity:1;stroke-miterlimit:22.9256;" d="M 332280.328798 341109.473268 C 360194.264775 378704.311337 357706.391693 400707.395063 332280.328798 411110.21356 C 302799.032779 398112.927141 306306.933824 372592.343635 332280.328798 341109.473268 " transform="matrix(0.000157012,0,0,0.000156583,0,0.0372177)"/>
<path style="fill:none;stroke-width:12400;stroke-linecap:round;stroke-linejoin:round;stroke:rgb(98.039216%,19.215686%,6.27451%);stroke-opacity:1;stroke-miterlimit:22.9256;" d="M 379898.219582 446409.94539 L 379898.219582 411110.21356 " transform="matrix(0.000157012,0,0,0.000156583,0,0.0372177)"/>
<path style="fill:none;stroke-width:12400;stroke-linecap:round;stroke-linejoin:round;stroke:rgb(98.039216%,19.215686%,6.27451%);stroke-opacity:1;stroke-miterlimit:22.9256;" d="M 379898.219582 341109.473268 C 407911.670483 378704.311337 405299.403747 400707.395063 379898.219582 411110.21356 C 350392.044833 398112.927141 353899.945878 372592.343635 379898.219582 341109.473268 " transform="matrix(0.000157012,0,0,0.000156583,0,0.0372177)"/>
<path style="fill:none;stroke-width:12400;stroke-linecap:round;stroke-linejoin:round;stroke:rgb(98.039216%,19.215686%,6.27451%);stroke-opacity:1;stroke-miterlimit:22.9256;" d="M 427491.231636 446409.94539 L 427491.231636 411110.21356 " transform="matrix(0.000157012,0,0,0.000156583,0,0.0372177)"/>
<path style="fill:none;stroke-width:12400;stroke-linecap:round;stroke-linejoin:round;stroke:rgb(98.039216%,19.215686%,6.27451%);stroke-opacity:1;stroke-miterlimit:22.9256;" d="M 427491.231636 341109.473268 C 455504.682537 378704.311337 452892.415801 400707.395063 427491.231636 411110.21356 C 398009.935617 398112.927141 401517.836663 372592.343635 427491.231636 341109.473268 " transform="matrix(0.000157012,0,0,0.000156583,0,0.0372177)"/>
<path style="fill:none;stroke-width:12400;stroke-linecap:round;stroke-linejoin:round;stroke:rgb(98.039216%,19.215686%,6.27451%);stroke-opacity:1;stroke-miterlimit:22.9256;" d="M 276999.788921 32592.31176 L 276999.788921 561913.661552 " transform="matrix(0.000157012,0,0,0.000156583,0,0.0372177)"/>
<path style="fill:none;stroke-width:12400;stroke-linecap:round;stroke-linejoin:round;stroke:rgb(98.039216%,19.215686%,6.27451%);stroke-opacity:1;stroke-miterlimit:22.9256;" d="M 12414.486678 297203.093042 L 541684.606088 297203.093042 " transform="matrix(0.000157012,0,0,0.000156583,0,0.0372177)"/>
<path style=" stroke:none;fill-rule:nonzero;fill:rgb(98.039216%,19.215686%,6.27451%);fill-opacity:1;" d="M 43.492188 3.199219 C 45.550781 3.199219 47.558594 3.339844 49.519531 3.605469 L 48.25 4.875 L 49.285156 6.394531 C 46.789062 5.894531 46.144531 7.085938 43.492188 7.085938 C 32.5625 7.085938 22.65625 11.496094 15.496094 18.65625 C 8.320312 25.796875 3.894531 35.675781 3.894531 46.574219 C 3.894531 57.488281 8.320312 67.367188 15.496094 74.507812 C 22.65625 81.664062 32.5625 86.078125 43.492188 86.078125 C 54.4375 86.078125 64.34375 81.664062 71.503906 74.507812 C 78.679688 67.367188 83.105469 57.488281 83.105469 46.574219 C 83.105469 35.847656 78.820312 26.125 71.863281 19.015625 L 74.609375 16.261719 C 82.273438 24.089844 87 34.78125 87 46.574219 C 87 58.566406 82.132812 69.40625 74.265625 77.246094 C 66.382812 85.109375 55.503906 89.960938 43.492188 89.960938 C 31.480469 89.960938 20.617188 85.109375 12.734375 77.246094 C 4.867188 69.40625 0 58.566406 0 46.574219 C 0 34.59375 4.867188 23.757812 12.734375 15.898438 C 20.617188 8.054688 31.480469 3.199219 43.492188 3.199219 Z M 43.492188 3.199219 "/>
<path style=" stroke:none;fill-rule:evenodd;fill:rgb(98.039216%,19.215686%,6.27451%);fill-opacity:1;" d="M 43.492188 0.0390625 L 53.589844 5.140625 L 43.492188 10.246094 Z M 43.492188 0.0390625 "/>
</g>
</svg>
