<svg fill="#fa3b11" height="90px" width="90px" version="1.1" id="Capa_1" xmlns="http://www.w3.org/2000/svg" xmlns:xlink="http://www.w3.org/1999/xlink" viewBox="0 0 470 470" xml:space="preserve" stroke="#fa3b11"><path d="M7.5,369.797h455c2.68,0,5.155-1.43,6.495-3.75s1.34-5.18,0-7.5L330.822,119.225c-1.34-2.32-3.815-3.75-6.495-3.75 s-5.155,1.43-6.495,3.75l-72.007,124.719c-2.071,3.587-0.842,8.174,2.745,10.245c3.588,2.071,8.175,0.842,10.245-2.745 l16.119-27.919l19.1,14.131c2.65,1.961,6.271,1.961,8.922,0l21.368-15.81l21.371,15.81c1.325,0.98,2.894,1.471,4.461,1.471 s3.136-0.49,4.461-1.471l19.102-14.132l75.791,131.273H20.49l75.791-131.273l19.1,14.131c2.65,1.961,6.271,1.961,8.922,0 l21.367-15.81l21.371,15.81c1.325,0.98,2.894,1.471,4.461,1.471s3.136-0.49,4.461-1.471l19.102-14.132l64.965,112.523 c2.07,3.588,6.66,4.817,10.245,2.745c3.587-2.071,4.816-6.658,2.745-10.245L152.168,119.225c-1.34-2.32-3.815-3.75-6.495-3.75 s-5.155,1.43-6.495,3.75L1.005,358.547c-1.34,2.32-1.34,5.18,0,7.5S4.82,369.797,7.5,369.797z M350.156,222.297l-21.371-15.811 c-2.652-1.961-6.271-1.961-8.922,0l-21.368,15.81l-16.012-11.847l41.844-72.475l41.843,72.475L350.156,222.297z M145.673,137.975 l41.844,72.475l-16.014,11.848l-21.371-15.811c-2.652-1.961-6.271-1.961-8.922,0l-21.367,15.81l-16.013-11.847L145.673,137.975z"></path> <path d="M432.5,429.797c4.143,0,7.5-3.358,7.5-7.5s-3.357-7.5-7.5-7.5h-64.641c-4.143,0-7.5,3.358-7.5,7.5s3.357,7.5,7.5,7.5H432.5 z"></path> <path d="M30,422.297c0,4.142,3.357,7.5,7.5,7.5h300.359c4.143,0,7.5-3.358,7.5-7.5s-3.357-7.5-7.5-7.5H37.5 C33.357,414.797,30,418.155,30,422.297z"></path> <path d="M462.5,444.797H320.538c-4.143,0-7.5,3.358-7.5,7.5s3.357,7.5,7.5,7.5H462.5c4.143,0,7.5-3.358,7.5-7.5 S466.643,444.797,462.5,444.797z"></path> <path d="M290.538,444.797H119.462c-4.143,0-7.5,3.358-7.5,7.5s3.357,7.5,7.5,7.5h171.076c4.143,0,7.5-3.358,7.5-7.5 S294.681,444.797,290.538,444.797z"></path> <path d="M89.462,444.797H7.5c-4.143,0-7.5,3.358-7.5,7.5s3.357,7.5,7.5,7.5h81.962c4.143,0,7.5-3.358,7.5-7.5 S93.604,444.797,89.462,444.797z"></path> <path d="M462.5,384.797H84.82c-4.143,0-7.5,3.358-7.5,7.5s3.357,7.5,7.5,7.5H462.5c4.143,0,7.5-3.358,7.5-7.5 S466.643,384.797,462.5,384.797z"></path> <path d="M7.5,399.797h47.32c4.143,0,7.5-3.358,7.5-7.5s-3.357-7.5-7.5-7.5H7.5c-4.143,0-7.5,3.358-7.5,7.5 S3.357,399.797,7.5,399.797z"></path> <path d="M235,136.996c34.957,0,63.396-28.439,63.396-63.396S269.957,10.203,235,10.203s-63.396,28.439-63.396,63.396 S200.043,136.996,235,136.996z M235,25.203c26.686,0,48.396,21.71,48.396,48.396S261.686,121.996,235,121.996 s-48.396-21.71-48.396-48.396S208.314,25.203,235,25.203z"></path></svg>