<?xml version="1.0" encoding="UTF-8"?>
<svg xmlns="http://www.w3.org/2000/svg" xmlns:xlink="http://www.w3.org/1999/xlink" width="90px" height="px" viewBox="0 0 90 74" version="1.1">
<g id="surface1">
<path style="fill:none;stroke-width:12300;stroke-linecap:round;stroke-linejoin:round;stroke:rgb(98.039216%,19.215686%,6.27451%);stroke-opacity:1;stroke-miterlimit:22.9256;" d="M 436700.775971 268596.621622 C 436700.775971 318246.183488 396445.935389 358501.024071 346796.373522 358501.024071 C 297146.811655 358501.024071 256891.971073 318246.183488 256891.971073 268596.621622 C 256891.971073 218947.059755 297146.811655 178692.219172 346796.373522 178692.219172 C 396445.935389 178692.219172 436700.775971 218947.059755 436700.775971 268596.621622 Z M 436700.775971 268596.621622 " transform="matrix(0.000202906,0,0,0.000202906,0.0663559,0)"/>
<path style="fill:none;stroke-width:12300;stroke-linecap:round;stroke-linejoin:round;stroke:rgb(98.039216%,19.215686%,6.27451%);stroke-opacity:1;stroke-miterlimit:22.9256;" d="M 217599.704392 218003.737331 L 6199.224029 218003.737331 C 6199.224029 336804.608319 97701.499155 336804.608319 143404.508024 336804.608319 L 288194.874367 336804.608319 C 285307.15266 334301.916174 282496.436867 331606.709248 279897.487331 328699.736064 C 245591.353463 316994.837416 218292.757601 288290.883657 217599.704392 218003.737331 Z M 217599.704392 218003.737331 " transform="matrix(0.000202906,0,0,0.000202906,0.0663559,0)"/>
<path style="fill:none;stroke-width:12300;stroke-linecap:round;stroke-linejoin:round;stroke:rgb(98.039216%,19.215686%,6.27451%);stroke-opacity:1;stroke-miterlimit:22.9256;" d="M 157207.817779 139496.209882 L 286192.72065 139496.209882 " transform="matrix(0.000202906,0,0,0.000202906,0.0663559,0)"/>
<path style="fill:none;stroke-width:12300;stroke-linecap:round;stroke-linejoin:round;stroke:rgb(98.039216%,19.215686%,6.27451%);stroke-opacity:1;stroke-miterlimit:22.9256;" d="M 157207.817779 93908.709882 L 286192.72065 93908.709882 " transform="matrix(0.000202906,0,0,0.000202906,0.0663559,0)"/>
<path style="fill:none;stroke-width:12300;stroke-linecap:round;stroke-linejoin:round;stroke:rgb(98.039216%,19.215686%,6.27451%);stroke-opacity:1;stroke-miterlimit:22.9256;" d="M 157207.817779 48398.215794 L 206491.601562 48398.215794 " transform="matrix(0.000202906,0,0,0.000202906,0.0663559,0)"/>
<path style="fill:none;stroke-width:12300;stroke-linecap:round;stroke-linejoin:round;stroke:rgb(98.039216%,19.215686%,6.27451%);stroke-opacity:1;stroke-miterlimit:22.9256;" d="M 106403.16723 6198.975929 L 336997.371199 6198.975929 L 336997.371199 179192.757601 C 292006.667019 184101.884502 256891.971073 222296.816934 256891.971073 268596.621622 C 256891.971073 291794.65266 265593.639147 312798.015203 279897.487331 328699.736064 C 245591.353463 316994.837416 218292.757601 288290.883657 217599.704392 218003.737331 L 106403.16723 218003.737331 Z M 141306.096917 336804.608319 L 106403.16723 335399.250422 C 119109.142736 336708.350929 131199.070946 336804.608319 141306.096917 336804.608319 Z M 141306.096917 336804.608319 " transform="matrix(0.000202906,0,0,0.000202906,0.0663559,0)"/>
<path style="fill-rule:evenodd;fill:rgb(100%,100%,100%);fill-opacity:1;stroke-width:9900;stroke-linecap:round;stroke-linejoin:round;stroke:rgb(98.039216%,19.215686%,6.27451%);stroke-opacity:1;stroke-miterlimit:22.9256;" d="M 285191.643792 277991.342905 C 286404.486909 279396.700802 291390.619721 281706.878167 293200.258657 282804.212416 C 297608.847128 285191.395693 296492.261402 285499.419341 299206.719806 289407.469383 C 301901.926731 293296.267948 307792.879012 300400.063345 311604.671664 302402.217061 C 313991.854941 300400.063345 316109.517525 298109.137458 320498.854519 299803.267525 C 324599.419341 301401.140203 324098.880912 303807.574958 325793.01098 307195.835093 C 331298.933699 308293.169341 331799.472128 309794.784628 333301.087416 314992.683699 C 342695.808699 312509.243032 343100.089738 318900.733742 345005.986064 321307.168497 C 350993.195735 319998.06799 355902.322635 323790.609164 353707.654139 329797.070312 C 358096.991132 330798.147171 361504.502745 327506.144426 360503.425887 323405.579603 C 360099.144848 321595.940667 346892.630912 311392.657306 345294.758235 310006.550887 C 343696.885557 308601.19299 338595.243877 304404.370777 338999.524916 302402.217061 C 341001.678632 302094.193412 342407.036529 304904.909206 346007.062922 307908.13978 L 353303.3731 314107.115709 C 359098.06799 318900.733742 363699.171242 324599.171242 370494.94299 319093.248522 C 371496.019848 318207.680532 372805.120355 316802.322635 372901.377745 314703.911529 C 372997.635135 312201.219383 371707.786106 311508.166174 370494.94299 310295.323057 C 364103.45228 303692.06609 354997.503167 297493.09016 350704.423564 293296.267948 C 348991.042019 291794.65266 349895.861486 290697.318412 351609.243032 291505.88049 C 352206.038851 291794.65266 352494.811022 292198.933699 353091.606841 292699.472128 C 354208.192568 293604.291596 355305.526816 294509.111064 356402.861064 295298.421664 C 361504.502745 299398.986486 370302.428209 306695.296664 374191.226774 311200.142525 C 378003.019426 311103.885135 383508.942145 306406.524493 383104.661106 302690.989231 C 382604.122677 298994.705448 358000.733742 280898.31609 354593.222128 278299.366554 C 348105.474029 273409.491132 350396.399916 273890.778083 342792.06609 277105.774916 C 338595.243877 278799.904983 334205.906883 281302.597128 328892.498944 280994.57348 C 324599.419341 280705.801309 318900.981841 277798.828125 319998.31609 272697.186444 C 320595.111909 269809.464738 326601.573057 265901.414696 329296.779983 263995.51837 C 332896.806377 261608.335093 336304.31799 259702.438767 340809.163851 258008.308699 C 347296.911951 255698.131334 348894.784628 255794.388725 355594.298986 257507.77027 C 374402.993032 262493.903083 380101.430532 251193.285473 376405.146748 246996.46326 C 374094.969383 244301.256334 365893.839738 244801.794764 361697.017525 244301.256334 C 353707.654139 243396.436867 356807.142103 242299.102618 345294.758235 243203.922086 C 337690.424409 243800.717905 330394.114231 245302.333193 323598.342483 247997.540118 C 314992.931799 251308.794341 320498.854519 252791.15815 309390.751689 245090.566934 C 305790.725296 242607.126267 287405.563767 228707.559122 285307.15266 227898.997044 Z M 285191.643792 277991.342905 " transform="matrix(0.000202906,0,0,0.000202906,0.0663559,0)"/>
<path style="fill-rule:evenodd;fill:rgb(100%,100%,100%);fill-opacity:1;stroke-width:9900;stroke-linecap:round;stroke-linejoin:round;stroke:rgb(98.039216%,19.215686%,6.27451%);stroke-opacity:1;stroke-miterlimit:22.9256;" d="M 329797.318412 278992.419764 C 334205.906883 278992.419764 339500.063345 276393.470228 343100.089738 274699.34016 C 351301.219383 271003.056377 348009.216639 272793.443834 355594.298986 275103.621199 C 362794.351774 277202.032306 369898.147171 276008.440667 376405.146748 272600.929054 C 378099.276816 271696.109586 380101.430532 269597.69848 381795.5606 270406.260557 C 381891.81799 272196.648015 382103.584248 271599.852196 377598.738387 274198.801731 C 369801.88978 278607.390203 365008.271748 278106.851774 357307.680532 277702.570735 L 371707.786106 288906.930954 C 374191.226774 291005.342061 376405.146748 292795.729519 378792.330025 294797.883235 C 380005.173142 295702.702703 381295.022171 296992.551731 382392.356419 297993.62859 C 384201.995355 299707.010135 384394.510135 300900.601774 385395.586993 301709.163851 C 389399.894426 298802.190667 393904.740287 294297.344806 396907.970861 290408.546242 C 398602.100929 288290.883657 400199.973606 286307.981419 401701.588894 284094.061444 C 405109.100507 279107.928632 408401.103252 281206.339738 408401.103252 277991.342905 L 408401.103252 226801.662796 C 405705.896326 227995.254434 399891.949958 232808.123944 397293.000422 234791.026182 L 380698.226351 246996.46326 C 377906.762035 248998.616976 380505.711571 248690.593328 378599.815245 253291.696579 C 376905.685177 257507.77027 372497.096706 260202.977196 366894.916596 260703.515625 C 352090.529983 262108.873522 352802.834671 253695.977618 335803.779561 262493.903083 C 331202.676309 264804.080448 327698.907306 267306.772593 324406.904561 270290.751689 C 323001.546664 271696.109586 320498.854519 273293.982264 322693.523015 276104.698057 C 324002.623522 277798.828125 326794.087838 278992.419764 329797.318412 278992.419764 Z M 329797.318412 278992.419764 " transform="matrix(0.000202906,0,0,0.000202906,0.0663559,0)"/>
<path style="fill-rule:evenodd;fill:rgb(100%,100%,100%);fill-opacity:1;stroke-width:9900;stroke-linecap:butt;stroke-linejoin:miter;stroke:rgb(98.039216%,19.215686%,6.27451%);stroke-opacity:1;stroke-miterlimit:22.9256;" d="M 323906.366132 309602.269848 C 317303.109164 311796.938345 317899.904983 325003.45228 327005.854096 323598.094383 C 330009.084671 323097.555954 329296.779983 322808.783784 329893.575802 320190.58277 C 330394.114231 318092.171664 331491.44848 317302.861064 331202.676309 314800.168919 C 330702.13788 311296.399916 327891.422086 308293.169341 323906.366132 309602.269848 Z M 323906.366132 309602.269848 " transform="matrix(0.000202906,0,0,0.000202906,0.0663559,0)"/>
<path style="fill-rule:evenodd;fill:rgb(100%,100%,100%);fill-opacity:1;stroke-width:9900;stroke-linecap:butt;stroke-linejoin:miter;stroke:rgb(98.039216%,19.215686%,6.27451%);stroke-opacity:1;stroke-miterlimit:22.9256;" d="M 334802.702703 316898.580025 C 333705.368454 317495.375845 334302.164274 316802.322635 333108.572635 318092.171664 C 329393.037373 321903.964316 332800.548986 331394.94299 339692.578125 328603.478674 C 345699.039274 326100.786529 342099.01288 313298.553632 334802.702703 316898.580025 Z M 334802.702703 316898.580025 " transform="matrix(0.000202906,0,0,0.000202906,0.0663559,0)"/>
<path style="fill-rule:evenodd;fill:rgb(100%,100%,100%);fill-opacity:1;stroke-width:9900;stroke-linecap:butt;stroke-linejoin:miter;stroke:rgb(98.039216%,19.215686%,6.27451%);stroke-opacity:1;stroke-miterlimit:22.9256;" d="M 317899.904983 313895.349451 C 318592.958193 310603.346706 320595.111909 308601.19299 323405.827703 307503.858742 C 322693.523015 297300.57538 309698.775338 300900.601774 312105.210093 310006.550887 C 312894.520693 312894.272593 314896.674409 313606.57728 317899.904983 313895.349451 Z M 317899.904983 313895.349451 " transform="matrix(0.000202906,0,0,0.000202906,0.0663559,0)"/>
<path style="fill-rule:evenodd;fill:rgb(100%,100%,100%);fill-opacity:1;stroke-width:9900;stroke-linecap:butt;stroke-linejoin:miter;stroke:rgb(98.039216%,19.215686%,6.27451%);stroke-opacity:1;stroke-miterlimit:22.9256;" d="M 341906.4981 329893.327703 C 345102.243454 336592.842061 352899.092061 330798.147171 352206.038851 326408.810177 C 351801.757812 323906.118032 348297.988809 322096.479096 345602.781883 323309.322213 C 344101.166596 324002.375422 344697.962416 324907.19489 344004.909206 326601.324958 C 343292.604519 328391.712416 342599.551309 328507.221284 341906.4981 329893.327703 Z M 341906.4981 329893.327703 " transform="matrix(0.000202906,0,0,0.000202906,0.0663559,0)"/>
<path style="fill-rule:evenodd;fill:rgb(100%,100%,100%);fill-opacity:1;stroke-width:2500;stroke-linecap:butt;stroke-linejoin:miter;stroke:rgb(98.039216%,19.215686%,6.27451%);stroke-opacity:1;stroke-miterlimit:22.9256;" d="M 326004.777238 309602.269848 C 319401.52027 311796.938345 320094.57348 325003.45228 329200.522593 323598.094383 C 332107.495777 323097.555954 331491.44848 322808.783784 332107.495777 320190.58277 C 332608.034206 318092.171664 333705.368454 317302.861064 333301.087416 314800.168919 C 332800.548986 311296.399916 330009.084671 308293.169341 326004.777238 309602.269848 Z M 326004.777238 309602.269848 " transform="matrix(0.000202906,0,0,0.000202906,0.0663559,0)"/>
<path style="fill-rule:evenodd;fill:rgb(100%,100%,100%);fill-opacity:1;stroke-width:2500;stroke-linecap:butt;stroke-linejoin:miter;stroke:rgb(98.039216%,19.215686%,6.27451%);stroke-opacity:1;stroke-miterlimit:22.9256;" d="M 336997.371199 316898.580025 C 335803.779561 317495.375845 336496.83277 316802.322635 335303.241132 318092.171664 C 331606.957348 321903.964316 334995.217483 331394.94299 341790.989231 328603.478674 C 347797.45038 326100.786529 344197.423986 313298.553632 336997.371199 316898.580025 Z M 336997.371199 316898.580025 " transform="matrix(0.000202906,0,0,0.000202906,0.0663559,0)"/>
<path style="fill-rule:evenodd;fill:rgb(100%,100%,100%);fill-opacity:1;stroke-width:2500;stroke-linecap:butt;stroke-linejoin:miter;stroke:rgb(98.039216%,19.215686%,6.27451%);stroke-opacity:1;stroke-miterlimit:22.9256;" d="M 319998.31609 313895.349451 C 320691.369299 310603.346706 322693.523015 308601.19299 325600.496199 307503.858742 C 324791.934122 297300.57538 311893.443834 300900.601774 314203.621199 310006.550887 C 314992.931799 312894.272593 316995.085515 313606.57728 319998.31609 313895.349451 Z M 319998.31609 313895.349451 " transform="matrix(0.000202906,0,0,0.000202906,0.0663559,0)"/>
<path style="fill-rule:evenodd;fill:rgb(100%,100%,100%);fill-opacity:1;stroke-width:2500;stroke-linecap:butt;stroke-linejoin:miter;stroke:rgb(98.039216%,19.215686%,6.27451%);stroke-opacity:1;stroke-miterlimit:22.9256;" d="M 344004.909206 329893.327703 C 347200.654561 336592.842061 354997.503167 330798.147171 354304.449958 326408.810177 C 353900.168919 323906.118032 350492.657306 322096.479096 347797.45038 323309.322213 C 346199.577703 324002.375422 346796.373522 324907.19489 346103.320312 326601.324958 C 345391.015625 328391.712416 344697.962416 328507.221284 344004.909206 329893.327703 Z M 344004.909206 329893.327703 " transform="matrix(0.000202906,0,0,0.000202906,0.0663559,0)"/>
</g>
</svg>
