<?xml version="1.0" encoding="UTF-8"?>
<svg xmlns="http://www.w3.org/2000/svg" xmlns:xlink="http://www.w3.org/1999/xlink" width="90px" height="px" viewBox="0 0 90 74" version="1.1">
<g id="surface1">
<path style="fill:none;stroke-width:12300;stroke-linecap:round;stroke-linejoin:round;stroke:rgb(98.039216%,19.215686%,6.27451%);stroke-opacity:1;stroke-miterlimit:22.9256;" d="M 397697.281461 254697.054476 L 359694.863809 216790.894215 L 310507.337416 266401.953125 C 299996.030405 277009.517525 299707.258235 283997.804054 310507.337416 294894.140625 L 320402.597128 304693.142948 L 348009.216639 304693.142948 Z M 397697.281461 254697.054476 " transform="matrix(0.000202906,0,0,0.000202906,0.0663559,0)"/>
<path style="fill:none;stroke-width:12300;stroke-linecap:round;stroke-linejoin:round;stroke:rgb(98.039216%,19.215686%,6.27451%);stroke-opacity:1;stroke-miterlimit:22.9256;" d="M 429192.699535 304693.142948 L 320402.597128 304693.142948 " transform="matrix(0.000202906,0,0,0.000202906,0.0663559,0)"/>
<path style="fill:none;stroke-width:12300;stroke-linecap:round;stroke-linejoin:round;stroke:rgb(98.039216%,19.215686%,6.27451%);stroke-opacity:1;stroke-miterlimit:22.9256;" d="M 301593.903083 309390.50359 L 291506.12859 312894.272593 " transform="matrix(0.000202906,0,0,0.000202906,0.0663559,0)"/>
<path style="fill:none;stroke-width:12300;stroke-linecap:round;stroke-linejoin:round;stroke:rgb(98.039216%,19.215686%,6.27451%);stroke-opacity:1;stroke-miterlimit:22.9256;" d="M 311893.443834 318900.733742 L 308293.417441 329007.759713 " transform="matrix(0.000202906,0,0,0.000202906,0.0663559,0)"/>
<path style="fill:none;stroke-width:12300;stroke-linecap:round;stroke-linejoin:round;stroke:rgb(98.039216%,19.215686%,6.27451%);stroke-opacity:1;stroke-miterlimit:22.9256;" d="M 343003.832348 285807.44299 L 316995.085515 259894.953547 " transform="matrix(0.000202906,0,0,0.000202906,0.0663559,0)"/>
<path style="fill:none;stroke-width:12300;stroke-linecap:round;stroke-linejoin:round;stroke:rgb(98.039216%,19.215686%,6.27451%);stroke-opacity:1;stroke-miterlimit:22.9256;" d="M 436700.775971 268596.621622 C 436700.775971 318246.183488 396445.935389 358501.024071 346796.373522 358501.024071 C 297146.811655 358501.024071 256891.971073 318246.183488 256891.971073 268596.621622 C 256891.971073 218947.059755 297146.811655 178692.219172 346796.373522 178692.219172 C 396445.935389 178692.219172 436700.775971 218947.059755 436700.775971 268596.621622 Z M 436700.775971 268596.621622 " transform="matrix(0.000202906,0,0,0.000202906,0.0663559,0)"/>
<path style="fill:none;stroke-width:12300;stroke-linecap:round;stroke-linejoin:round;stroke:rgb(98.039216%,19.215686%,6.27451%);stroke-opacity:1;stroke-miterlimit:22.9256;" d="M 217599.704392 218003.737331 L 6199.224029 218003.737331 C 6199.224029 336804.608319 97701.499155 336804.608319 143404.508024 336804.608319 L 288194.874367 336804.608319 C 285307.15266 334301.916174 282496.436867 331606.709248 279897.487331 328699.736064 C 245591.353463 316994.837416 218292.757601 288290.883657 217599.704392 218003.737331 Z M 217599.704392 218003.737331 " transform="matrix(0.000202906,0,0,0.000202906,0.0663559,0)"/>
<path style="fill:none;stroke-width:12300;stroke-linecap:round;stroke-linejoin:round;stroke:rgb(98.039216%,19.215686%,6.27451%);stroke-opacity:1;stroke-miterlimit:22.9256;" d="M 157207.817779 139496.209882 L 286192.72065 139496.209882 " transform="matrix(0.000202906,0,0,0.000202906,0.0663559,0)"/>
<path style="fill:none;stroke-width:12300;stroke-linecap:round;stroke-linejoin:round;stroke:rgb(98.039216%,19.215686%,6.27451%);stroke-opacity:1;stroke-miterlimit:22.9256;" d="M 157207.817779 93908.709882 L 286192.72065 93908.709882 " transform="matrix(0.000202906,0,0,0.000202906,0.0663559,0)"/>
<path style="fill:none;stroke-width:12300;stroke-linecap:round;stroke-linejoin:round;stroke:rgb(98.039216%,19.215686%,6.27451%);stroke-opacity:1;stroke-miterlimit:22.9256;" d="M 157207.817779 48398.215794 L 206491.601562 48398.215794 " transform="matrix(0.000202906,0,0,0.000202906,0.0663559,0)"/>
<path style="fill:none;stroke-width:12300;stroke-linecap:round;stroke-linejoin:round;stroke:rgb(98.039216%,19.215686%,6.27451%);stroke-opacity:1;stroke-miterlimit:22.9256;" d="M 106403.16723 6198.975929 L 336997.371199 6198.975929 L 336997.371199 179192.757601 C 292006.667019 184101.884502 256891.971073 222296.816934 256891.971073 268596.621622 C 256891.971073 291794.65266 265593.639147 312798.015203 279897.487331 328699.736064 C 245591.353463 316994.837416 218292.757601 288290.883657 217599.704392 218003.737331 L 106403.16723 218003.737331 Z M 141306.096917 336804.608319 L 106403.16723 335399.250422 C 119109.142736 336708.350929 131199.070946 336804.608319 141306.096917 336804.608319 Z M 141306.096917 336804.608319 " transform="matrix(0.000202906,0,0,0.000202906,0.0663559,0)"/>
</g>
</svg>
