<?xml version="1.0" encoding="UTF-8"?>
<svg xmlns="http://www.w3.org/2000/svg" xmlns:xlink="http://www.w3.org/1999/xlink" width="90px" height="px" viewBox="0 0 90 74" version="1.1">
<g id="surface1">
<path style="fill:none;stroke-width:12300;stroke-linecap:round;stroke-linejoin:round;stroke:rgb(98.039216%,19.215686%,6.27451%);stroke-opacity:1;stroke-miterlimit:22.9256;" d="M 436700.775971 268596.621622 C 436700.775971 318246.183488 396445.935389 358501.024071 346796.373522 358501.024071 C 297146.811655 358501.024071 256891.971073 318246.183488 256891.971073 268596.621622 C 256891.971073 218947.059755 297146.811655 178692.219172 346796.373522 178692.219172 C 396445.935389 178692.219172 436700.775971 218947.059755 436700.775971 268596.621622 Z M 436700.775971 268596.621622 " transform="matrix(0.000202906,0,0,0.000202906,0.0663559,0)"/>
<path style="fill:none;stroke-width:12300;stroke-linecap:round;stroke-linejoin:round;stroke:rgb(98.039216%,19.215686%,6.27451%);stroke-opacity:1;stroke-miterlimit:22.9256;" d="M 217599.704392 218003.737331 L 6199.224029 218003.737331 C 6199.224029 336804.608319 97701.499155 336804.608319 143404.508024 336804.608319 L 288194.874367 336804.608319 C 285307.15266 334301.916174 282496.436867 331606.709248 279897.487331 328699.736064 C 245591.353463 316994.837416 218292.757601 288290.883657 217599.704392 218003.737331 Z M 217599.704392 218003.737331 " transform="matrix(0.000202906,0,0,0.000202906,0.0663559,0)"/>
<path style="fill:none;stroke-width:12300;stroke-linecap:round;stroke-linejoin:round;stroke:rgb(98.039216%,19.215686%,6.27451%);stroke-opacity:1;stroke-miterlimit:22.9256;" d="M 157207.817779 139496.209882 L 286192.72065 139496.209882 " transform="matrix(0.000202906,0,0,0.000202906,0.0663559,0)"/>
<path style="fill:none;stroke-width:12300;stroke-linecap:round;stroke-linejoin:round;stroke:rgb(98.039216%,19.215686%,6.27451%);stroke-opacity:1;stroke-miterlimit:22.9256;" d="M 157207.817779 93908.709882 L 286192.72065 93908.709882 " transform="matrix(0.000202906,0,0,0.000202906,0.0663559,0)"/>
<path style="fill:none;stroke-width:12300;stroke-linecap:round;stroke-linejoin:round;stroke:rgb(98.039216%,19.215686%,6.27451%);stroke-opacity:1;stroke-miterlimit:22.9256;" d="M 157207.817779 48398.215794 L 206491.601562 48398.215794 " transform="matrix(0.000202906,0,0,0.000202906,0.0663559,0)"/>
<path style="fill:none;stroke-width:12300;stroke-linecap:round;stroke-linejoin:round;stroke:rgb(98.039216%,19.215686%,6.27451%);stroke-opacity:1;stroke-miterlimit:22.9256;" d="M 106403.16723 6198.975929 L 336997.371199 6198.975929 L 336997.371199 179192.757601 C 292006.667019 184101.884502 256891.971073 222296.816934 256891.971073 268596.621622 C 256891.971073 291794.65266 265593.639147 312798.015203 279897.487331 328699.736064 C 245591.353463 316994.837416 218292.757601 288290.883657 217599.704392 218003.737331 L 106403.16723 218003.737331 Z M 141306.096917 336804.608319 L 106403.16723 335399.250422 C 119109.142736 336708.350929 131199.070946 336804.608319 141306.096917 336804.608319 Z M 141306.096917 336804.608319 " transform="matrix(0.000202906,0,0,0.000202906,0.0663559,0)"/>
<path style="fill:none;stroke-width:9900;stroke-linecap:round;stroke-linejoin:round;stroke:rgb(98.039216%,19.215686%,6.27451%);stroke-opacity:1;stroke-miterlimit:22.9256;" d="M 350396.399916 266498.210515 C 352591.068412 269693.95587 388995.613387 295798.960093 394405.278716 298590.424409 C 402009.612542 302594.731841 411308.076436 301901.678632 411096.310177 294008.572635 C 411000.052787 287405.315667 403395.718961 283709.031883 398409.586149 281302.597128 C 392595.63978 278491.881334 387205.225929 275392.39337 381506.788429 272504.671664 C 378696.072635 271003.056377 358308.75739 260299.234586 355998.580025 259798.696157 C 353707.654139 259298.157728 353399.63049 260992.287796 352591.068412 262493.903083 C 351801.757812 263706.746199 350704.423564 265092.852618 350396.399916 266498.210515 Z M 350396.399916 266498.210515 " transform="matrix(0.000202906,0,0,0.000202906,0.0663559,0)"/>
<path style="fill:none;stroke-width:9900;stroke-linecap:round;stroke-linejoin:round;stroke:rgb(98.039216%,19.215686%,6.27451%);stroke-opacity:1;stroke-miterlimit:22.9256;" d="M 313106.286951 254793.311867 L 327294.626267 263302.46516 C 329797.318412 264900.337838 339500.063345 270791.290118 341598.474451 271599.852196 L 355594.298986 249595.412796 L 327005.854096 232596.357686 C 325600.496199 234001.715583 321403.673986 241201.76837 319902.058699 243608.203125 C 317707.390203 246996.46326 315108.440667 251193.285473 313106.286951 254793.311867 Z M 313106.286951 254793.311867 " transform="matrix(0.000202906,0,0,0.000202906,0.0663559,0)"/>
<path style="fill:none;stroke-width:9900;stroke-linecap:round;stroke-linejoin:round;stroke:rgb(98.039216%,19.215686%,6.27451%);stroke-opacity:1;stroke-miterlimit:22.9256;" d="M 286808.767948 295298.421664 C 285807.69109 296800.036951 280898.564189 297204.31799 283093.232686 302305.959671 C 284402.333193 305193.681377 288907.179054 304500.628167 292295.439189 304500.628167 L 337805.933277 304500.628167 C 341502.217061 304500.628167 345294.758235 305193.681377 346603.858742 302402.217061 C 348702.269848 298397.909628 345391.015625 296992.551731 343100.089738 295702.702703 L 342695.808699 290793.575802 C 339596.320735 289599.984164 305193.929476 290196.779983 296992.799831 290196.779983 C 286597.001689 290196.779983 286808.767948 289195.703125 286808.767948 295298.421664 Z M 286808.767948 295298.421664 " transform="matrix(0.000202906,0,0,0.000202906,0.0663559,0)"/>
<path style="fill:none;stroke-width:9900;stroke-linecap:round;stroke-linejoin:round;stroke:rgb(98.039216%,19.215686%,6.27451%);stroke-opacity:1;stroke-miterlimit:22.9256;" d="M 329296.779983 218908.556799 C 326909.596706 220005.891047 318400.443412 227590.973395 327294.626267 233000.638725 L 343292.604519 242202.845228 C 351301.219383 246900.20587 360695.940667 255890.646115 365297.043919 242703.383657 C 366798.659206 238294.795186 364295.967061 236908.688767 361408.245355 235195.307221 L 337690.424409 221295.740076 C 335495.755912 220005.891047 332492.525338 217291.432644 329296.779983 218908.556799 Z M 329296.779983 218908.556799 " transform="matrix(0.000202906,0,0,0.000202906,0.0663559,0)"/>
<path style="fill:none;stroke-width:9900;stroke-linecap:round;stroke-linejoin:round;stroke:rgb(98.039216%,19.215686%,6.27451%);stroke-opacity:1;stroke-miterlimit:22.9256;" d="M 307792.879012 255505.616554 C 305405.695735 256602.950802 296896.542441 264207.284628 305790.725296 269597.69848 L 321807.955025 278799.904983 C 329797.318412 283497.265625 339192.039696 292506.957348 343793.142948 279300.443412 C 345294.758235 274891.854941 342792.06609 273505.748522 339904.344383 271792.366976 L 316205.774916 257892.799831 C 313991.854941 256602.950802 311007.875845 253907.743877 307792.879012 255505.616554 Z M 307792.879012 255505.616554 " transform="matrix(0.000202906,0,0,0.000202906,0.0663559,0)"/>
</g>
</svg>
