<?xml version="1.0" encoding="UTF-8"?>
<svg xmlns="http://www.w3.org/2000/svg" xmlns:xlink="http://www.w3.org/1999/xlink" width="90px" height="px" viewBox="0 0 90 74" version="1.1">
<g id="surface1">
<path style="fill:none;stroke-width:12300;stroke-linecap:round;stroke-linejoin:round;stroke:rgb(98.039216%,19.215686%,6.27451%);stroke-opacity:1;stroke-miterlimit:22.9256;" d="M 436700.775971 268596.621622 C 436700.775971 318246.183488 396445.935389 358501.024071 346796.373522 358501.024071 C 297146.811655 358501.024071 256891.971073 318246.183488 256891.971073 268596.621622 C 256891.971073 218947.059755 297146.811655 178692.219172 346796.373522 178692.219172 C 396445.935389 178692.219172 436700.775971 218947.059755 436700.775971 268596.621622 Z M 436700.775971 268596.621622 " transform="matrix(0.000202906,0,0,0.000202906,0.0663559,0)"/>
<path style="fill:none;stroke-width:12300;stroke-linecap:round;stroke-linejoin:round;stroke:rgb(98.039216%,19.215686%,6.27451%);stroke-opacity:1;stroke-miterlimit:22.9256;" d="M 217599.704392 218003.737331 L 6199.224029 218003.737331 C 6199.224029 336804.608319 97701.499155 336804.608319 143404.508024 336804.608319 L 288194.874367 336804.608319 C 285307.15266 334301.916174 282496.436867 331606.709248 279897.487331 328699.736064 C 245591.353463 316994.837416 218292.757601 288290.883657 217599.704392 218003.737331 Z M 217599.704392 218003.737331 " transform="matrix(0.000202906,0,0,0.000202906,0.0663559,0)"/>
<path style="fill:none;stroke-width:12300;stroke-linecap:round;stroke-linejoin:round;stroke:rgb(98.039216%,19.215686%,6.27451%);stroke-opacity:1;stroke-miterlimit:22.9256;" d="M 157207.817779 139496.209882 L 286192.72065 139496.209882 " transform="matrix(0.000202906,0,0,0.000202906,0.0663559,0)"/>
<path style="fill:none;stroke-width:12300;stroke-linecap:round;stroke-linejoin:round;stroke:rgb(98.039216%,19.215686%,6.27451%);stroke-opacity:1;stroke-miterlimit:22.9256;" d="M 157207.817779 93908.709882 L 286192.72065 93908.709882 " transform="matrix(0.000202906,0,0,0.000202906,0.0663559,0)"/>
<path style="fill:none;stroke-width:12300;stroke-linecap:round;stroke-linejoin:round;stroke:rgb(98.039216%,19.215686%,6.27451%);stroke-opacity:1;stroke-miterlimit:22.9256;" d="M 157207.817779 48398.215794 L 206491.601562 48398.215794 " transform="matrix(0.000202906,0,0,0.000202906,0.0663559,0)"/>
<path style="fill:none;stroke-width:12300;stroke-linecap:round;stroke-linejoin:round;stroke:rgb(98.039216%,19.215686%,6.27451%);stroke-opacity:1;stroke-miterlimit:22.9256;" d="M 106403.16723 6198.975929 L 336997.371199 6198.975929 L 336997.371199 179192.757601 C 292006.667019 184101.884502 256891.971073 222296.816934 256891.971073 268596.621622 C 256891.971073 291794.65266 265593.639147 312798.015203 279897.487331 328699.736064 C 245591.353463 316994.837416 218292.757601 288290.883657 217599.704392 218003.737331 L 106403.16723 218003.737331 Z M 141306.096917 336804.608319 L 106403.16723 335399.250422 C 119109.142736 336708.350929 131199.070946 336804.608319 141306.096917 336804.608319 Z M 141306.096917 336804.608319 " transform="matrix(0.000202906,0,0,0.000202906,0.0663559,0)"/>
<path style="fill:none;stroke-width:9900;stroke-linecap:round;stroke-linejoin:round;stroke:rgb(98.039216%,19.215686%,6.27451%);stroke-opacity:1;stroke-miterlimit:22.9256;" d="M 341502.217061 315608.730997 L 365797.582348 248998.616976 " transform="matrix(0.000202906,0,0,0.000202906,0.0663559,0)"/>
<path style="fill:none;stroke-width:12300;stroke-linecap:round;stroke-linejoin:round;stroke:rgb(98.039216%,19.215686%,6.27451%);stroke-opacity:1;stroke-miterlimit:22.9256;" d="M 357596.452703 240200.691512 L 341694.731841 252290.619721 L 318400.443412 240200.691512 L 294894.388725 262493.903083 L 306291.263725 281495.111909 L 302190.698902 312104.961993 " transform="matrix(0.000202906,0,0,0.000202906,0.0663559,0)"/>
<path style="fill:none;stroke-width:9900;stroke-linecap:round;stroke-linejoin:round;stroke:rgb(98.039216%,19.215686%,6.27451%);stroke-opacity:1;stroke-miterlimit:22.9256;" d="M 351397.476774 222296.816934 C 351397.476774 228765.313556 346161.074747 234001.715583 339692.578125 234001.715583 C 333243.332981 234001.715583 328006.930954 228765.313556 328006.930954 222296.816934 C 328006.930954 215847.571791 333243.332981 210591.918285 339692.578125 210591.918285 C 346161.074747 210591.918285 351397.476774 215847.571791 351397.476774 222296.816934 Z M 351397.476774 222296.816934 " transform="matrix(0.000202906,0,0,0.000202906,0.0663559,0)"/>
<path style="fill:none;stroke-width:9900;stroke-linecap:round;stroke-linejoin:round;stroke:rgb(98.039216%,19.215686%,6.27451%);stroke-opacity:1;stroke-miterlimit:22.9256;" d="M 363602.913851 218504.27576 L 376693.918919 218504.27576 L 376693.918919 243993.232686 C 376693.918919 247593.259079 373806.197213 250500.232264 370090.661951 250500.232264 C 366490.635557 250500.232264 363602.913851 247593.259079 363602.913851 243993.232686 Z M 363602.913851 218504.27576 " transform="matrix(0.000202906,0,0,0.000202906,0.0663559,0)"/>
<path style="fill:none;stroke-width:9900;stroke-linecap:round;stroke-linejoin:round;stroke:rgb(98.039216%,19.215686%,6.27451%);stroke-opacity:1;stroke-miterlimit:22.9256;" d="M 376693.918919 228592.050253 L 384394.510135 220891.459037 L 384394.510135 236408.150338 Z M 376693.918919 228592.050253 " transform="matrix(0.000202906,0,0,0.000202906,0.0663559,0)"/>
<path style="fill:none;stroke-width:9900;stroke-linecap:round;stroke-linejoin:round;stroke:rgb(98.039216%,19.215686%,6.27451%);stroke-opacity:1;stroke-miterlimit:22.9256;" d="M 370090.661951 312605.500422 L 370090.661951 250500.232264 " transform="matrix(0.000202906,0,0,0.000202906,0.0663559,0)"/>
<path style="fill:none;stroke-width:9900;stroke-linecap:round;stroke-linejoin:round;stroke:rgb(98.039216%,19.215686%,6.27451%);stroke-opacity:1;stroke-miterlimit:22.9256;" d="M 398794.615709 315608.730997 L 374499.250422 248998.616976 " transform="matrix(0.000202906,0,0,0.000202906,0.0663559,0)"/>
</g>
</svg>
