<?xml version="1.0" encoding="UTF-8"?>
<svg xmlns="http://www.w3.org/2000/svg" xmlns:xlink="http://www.w3.org/1999/xlink" width="90px" height="px" viewBox="0 0 90 74" version="1.1">
<g id="surface1">
<path style="fill:none;stroke-width:12300;stroke-linecap:round;stroke-linejoin:round;stroke:rgb(98.039216%,19.215686%,6.27451%);stroke-opacity:1;stroke-miterlimit:22.9256;" d="M 436700.775971 268596.621622 C 436700.775971 318246.183488 396445.935389 358501.024071 346796.373522 358501.024071 C 297146.811655 358501.024071 256891.971073 318246.183488 256891.971073 268596.621622 C 256891.971073 218947.059755 297146.811655 178692.219172 346796.373522 178692.219172 C 396445.935389 178692.219172 436700.775971 218947.059755 436700.775971 268596.621622 Z M 436700.775971 268596.621622 " transform="matrix(0.000202906,0,0,0.000202906,0.0663559,0)"/>
<path style="fill:none;stroke-width:12300;stroke-linecap:round;stroke-linejoin:round;stroke:rgb(98.039216%,19.215686%,6.27451%);stroke-opacity:1;stroke-miterlimit:22.9256;" d="M 217599.704392 218003.737331 L 6199.224029 218003.737331 C 6199.224029 336804.608319 97701.499155 336804.608319 143404.508024 336804.608319 L 288194.874367 336804.608319 C 285307.15266 334301.916174 282496.436867 331606.709248 279897.487331 328699.736064 C 245591.353463 316994.837416 218292.757601 288290.883657 217599.704392 218003.737331 Z M 217599.704392 218003.737331 " transform="matrix(0.000202906,0,0,0.000202906,0.0663559,0)"/>
<path style="fill:none;stroke-width:12300;stroke-linecap:round;stroke-linejoin:round;stroke:rgb(98.039216%,19.215686%,6.27451%);stroke-opacity:1;stroke-miterlimit:22.9256;" d="M 157207.817779 139496.209882 L 286192.72065 139496.209882 " transform="matrix(0.000202906,0,0,0.000202906,0.0663559,0)"/>
<path style="fill:none;stroke-width:12300;stroke-linecap:round;stroke-linejoin:round;stroke:rgb(98.039216%,19.215686%,6.27451%);stroke-opacity:1;stroke-miterlimit:22.9256;" d="M 157207.817779 93908.709882 L 286192.72065 93908.709882 " transform="matrix(0.000202906,0,0,0.000202906,0.0663559,0)"/>
<path style="fill:none;stroke-width:12300;stroke-linecap:round;stroke-linejoin:round;stroke:rgb(98.039216%,19.215686%,6.27451%);stroke-opacity:1;stroke-miterlimit:22.9256;" d="M 157207.817779 48398.215794 L 206491.601562 48398.215794 " transform="matrix(0.000202906,0,0,0.000202906,0.0663559,0)"/>
<path style="fill:none;stroke-width:12300;stroke-linecap:round;stroke-linejoin:round;stroke:rgb(98.039216%,19.215686%,6.27451%);stroke-opacity:1;stroke-miterlimit:22.9256;" d="M 106403.16723 6198.975929 L 336997.371199 6198.975929 L 336997.371199 179192.757601 C 292006.667019 184101.884502 256891.971073 222296.816934 256891.971073 268596.621622 C 256891.971073 291794.65266 265593.639147 312798.015203 279897.487331 328699.736064 C 245591.353463 316994.837416 218292.757601 288290.883657 217599.704392 218003.737331 L 106403.16723 218003.737331 Z M 141306.096917 336804.608319 L 106403.16723 335399.250422 C 119109.142736 336708.350929 131199.070946 336804.608319 141306.096917 336804.608319 Z M 141306.096917 336804.608319 " transform="matrix(0.000202906,0,0,0.000202906,0.0663559,0)"/>
<path style="fill:none;stroke-width:12300;stroke-linecap:butt;stroke-linejoin:round;stroke:rgb(98.039216%,19.215686%,6.27451%);stroke-opacity:1;stroke-miterlimit:22.9256;" d="M 312297.724873 217002.660473 L 370398.6856 217002.660473 C 373209.401394 217002.660473 375500.32728 219293.58636 375500.32728 222104.302154 L 375500.32728 273005.210093 C 373902.454603 272697.186444 372304.581926 272504.671664 370591.20038 272504.671664 C 357403.937922 272504.671664 346700.116132 283208.493454 346700.116132 296395.755912 C 346700.116132 305694.219806 351994.272593 313702.834671 359694.863809 317707.142103 L 304404.618877 317707.142103 C 301497.645693 317707.142103 299206.719806 315396.964738 299206.719806 312509.243032 L 299206.719806 230093.665541 Z M 312297.724873 217002.660473 " transform="matrix(0.000202906,0,0,0.000202906,0.0663559,0)"/>
<path style="fill:none;stroke-width:12300;stroke-linecap:round;stroke-linejoin:round;stroke:rgb(98.039216%,19.215686%,6.27451%);stroke-opacity:1;stroke-miterlimit:22.9256;" d="M 394501.536106 296395.755912 C 394501.536106 309602.269848 383797.714316 320306.091639 370591.20038 320306.091639 C 357403.937922 320306.091639 346700.116132 309602.269848 346700.116132 296395.755912 C 346700.116132 283208.493454 357403.937922 272504.671664 370591.20038 272504.671664 C 383797.714316 272504.671664 394501.536106 283208.493454 394501.536106 296395.755912 Z M 394501.536106 296395.755912 " transform="matrix(0.000202906,0,0,0.000202906,0.0663559,0)"/>
<path style="fill-rule:evenodd;fill:rgb(98.039216%,19.215686%,6.27451%);fill-opacity:1;stroke-width:7400;stroke-linecap:round;stroke-linejoin:round;stroke:rgb(98.039216%,19.215686%,6.27451%);stroke-opacity:1;stroke-miterlimit:22.9256;" d="M 4.0206 -11.503086 L 11791.099996 -11.503086 L 11842.348167 39808.326005 L 4.0206 39757.077834 Z M 4.0206 -11.503086 " transform="matrix(0.0000381111,-0.0000381111,0.0000381111,0.0000381111,73.000285,60.348248)"/>
<path style="fill-rule:evenodd;fill:rgb(98.039216%,19.215686%,6.27451%);fill-opacity:1;stroke-width:7400;stroke-linecap:round;stroke-linejoin:round;stroke:rgb(98.039216%,19.215686%,6.27451%);stroke-opacity:1;stroke-miterlimit:22.9256;" d="M 18.428544 -0.706969 L 11805.507941 -0.706969 L 11805.507941 39797.754048 L 18.428544 39797.754048 Z M 18.428544 -0.706969 " transform="matrix(-0.0000381111,-0.0000381111,-0.0000750853,0.0000750853,77.508462,58.875755)"/>
<path style="fill:none;stroke-width:4900;stroke-linecap:round;stroke-linejoin:round;stroke:rgb(98.039216%,19.215686%,6.27451%);stroke-opacity:1;stroke-miterlimit:22.9256;" d="M 316398.289696 255890.646115 L 358308.75739 255890.646115 " transform="matrix(0.000202906,0,0,0.000202906,0.0663559,0)"/>
<path style="fill:none;stroke-width:4900;stroke-linecap:round;stroke-linejoin:round;stroke:rgb(98.039216%,19.215686%,6.27451%);stroke-opacity:1;stroke-miterlimit:22.9256;" d="M 316398.289696 267306.772593 L 358308.75739 267306.772593 " transform="matrix(0.000202906,0,0,0.000202906,0.0663559,0)"/>
<path style="fill:none;stroke-width:4900;stroke-linecap:round;stroke-linejoin:round;stroke:rgb(98.039216%,19.215686%,6.27451%);stroke-opacity:1;stroke-miterlimit:22.9256;" d="M 316398.289696 278799.904983 L 344101.166596 278799.904983 " transform="matrix(0.000202906,0,0,0.000202906,0.0663559,0)"/>
<path style="fill:none;stroke-width:4900;stroke-linecap:round;stroke-linejoin:round;stroke:rgb(98.039216%,19.215686%,6.27451%);stroke-opacity:1;stroke-miterlimit:22.9256;" d="M 316398.289696 290293.037373 L 342291.52766 290293.037373 " transform="matrix(0.000202906,0,0,0.000202906,0.0663559,0)"/>
<path style="fill:none;stroke-width:4900;stroke-linecap:round;stroke-linejoin:round;stroke:rgb(98.039216%,19.215686%,6.27451%);stroke-opacity:1;stroke-miterlimit:22.9256;" d="M 316398.289696 301709.163851 L 341790.989231 301709.163851 " transform="matrix(0.000202906,0,0,0.000202906,0.0663559,0)"/>
<path style="fill-rule:nonzero;fill:rgb(98.039216%,19.215686%,6.27451%);fill-opacity:1;stroke-width:1200;stroke-linecap:butt;stroke-linejoin:miter;stroke:rgb(98.039216%,19.215686%,6.27451%);stroke-opacity:1;stroke-miterlimit:22.9256;" d="M 316898.828125 244397.513725 C 316898.828125 244609.279983 316898.828125 244705.537373 317091.342905 244898.052154 C 317303.109164 244994.309544 317495.623944 245206.075802 317707.390203 245302.333193 C 317996.162373 245398.590583 318207.928632 245398.590583 318400.443412 245494.847973 C 318708.467061 245591.105363 318900.981841 245591.105363 318997.239231 245591.105363 C 319497.77766 245591.105363 319902.058699 245494.847973 320402.597128 245398.590583 C 320806.878167 245206.075802 321191.907728 245206.075802 321692.446157 245206.075802 C 322000.469806 245206.075802 322192.984586 245206.075802 322501.008235 245302.333193 C 322809.031883 245398.590583 323001.546664 245398.590583 323309.570312 245398.590583 C 323502.085093 245398.590583 323694.599873 245398.590583 323790.857264 245398.590583 C 324002.623522 245302.333193 324195.138302 245302.333193 324291.395693 245206.075802 C 324503.161951 245090.566934 324599.419341 244994.309544 324695.676731 244898.052154 C 324791.934122 244705.537373 324791.934122 244609.279983 324791.934122 244397.513725 C 324791.934122 243993.232686 324695.676731 243800.717905 324503.161951 243608.203125 C 324291.395693 243396.436867 324098.880912 243300.179476 323790.857264 243203.922086 C 323502.085093 243107.664696 323194.061444 243107.664696 322905.289274 243107.664696 C 322597.265625 242992.155828 322308.493454 242992.155828 322096.727196 242992.155828 L 321904.212416 242895.898438 L 321807.955025 235792.103041 L 321807.955025 235407.07348 L 321692.446157 233308.662373 C 321807.955025 233096.896115 321807.955025 232808.123944 321904.212416 232596.357686 C 321904.212416 232307.585515 321904.212416 232095.819257 321904.212416 231903.304476 L 322000.469806 231807.047086 C 322000.469806 231807.047086 322000.469806 231807.047086 322096.727196 231807.047086 C 322192.984586 231807.047086 322308.493454 231807.047086 322308.493454 231807.047086 C 322501.008235 231807.047086 322693.523015 231807.047086 323001.546664 231903.304476 C 323194.061444 231999.561867 323405.827703 231999.561867 323598.342483 232192.076647 C 323790.857264 232307.585515 323906.366132 232403.842905 324098.880912 232596.357686 C 324195.138302 232808.123944 324291.395693 233000.638725 324291.395693 233308.662373 L 324291.395693 235599.58826 C 324291.395693 235792.103041 324406.904561 236100.126689 324599.419341 236292.64147 C 324791.934122 236504.407728 325003.70038 236600.665118 325292.472551 236600.665118 C 325600.496199 236600.665118 325793.01098 236504.407728 326004.777238 236196.384079 C 326197.292019 236003.869299 326293.549409 235695.84565 326293.549409 235407.07348 L 326293.549409 231094.742399 C 326293.549409 230805.970228 326101.034628 230497.946579 325908.519848 230305.431799 C 325696.75359 229997.40815 325407.981419 229901.15076 325099.95777 229901.15076 L 320306.339738 229901.15076 C 320094.57348 229804.89337 319998.31609 229804.89337 319998.31609 229804.89337 C 319902.058699 229804.89337 319805.801309 229804.89337 319594.035051 229804.89337 C 319497.77766 229804.89337 319401.52027 229804.89337 319305.26288 229804.89337 C 319209.00549 229804.89337 319093.496622 229804.89337 318997.239231 229901.15076 L 316302.032306 229901.15076 C 316205.774916 229901.15076 316109.517525 229997.40815 315994.008657 230093.665541 C 315897.751267 230209.174409 315801.493877 230305.431799 315705.236486 230401.689189 C 315608.979096 230594.20397 315493.470228 230690.46136 315493.470228 230805.970228 C 315397.212838 230998.485008 315397.212838 231094.742399 315397.212838 231190.999789 L 315397.212838 235407.07348 C 315397.212838 235695.84565 315493.470228 235907.611909 315608.979096 236196.384079 C 315801.493877 236504.407728 315994.008657 236600.665118 316302.032306 236600.665118 C 316590.804476 236600.665118 316898.828125 236504.407728 316995.085515 236292.64147 C 317206.851774 236100.126689 317303.109164 235907.611909 317303.109164 235599.58826 C 317303.109164 235291.564611 317303.109164 235002.792441 317303.109164 234598.511402 C 317303.109164 234194.230363 317399.366554 233905.458193 317399.366554 233501.177154 C 317495.623944 233193.153505 317707.390203 232904.381334 317899.904983 232596.357686 C 318092.419764 232307.585515 318400.443412 232095.819257 318900.981841 231999.561867 C 318900.981841 231999.561867 318997.239231 231999.561867 319093.496622 231999.561867 C 319209.00549 231999.561867 319305.26288 231999.561867 319305.26288 231999.561867 C 319401.52027 231999.561867 319401.52027 231999.561867 319497.77766 231999.561867 C 319594.035051 231999.561867 319709.543919 231999.561867 319709.543919 231999.561867 L 319805.801309 232095.819257 L 319805.801309 242895.898438 L 319497.77766 243203.922086 L 317495.623944 243203.922086 C 317303.109164 243203.922086 317206.851774 243300.179476 317091.342905 243396.436867 C 317091.342905 243396.436867 316995.085515 243608.203125 316995.085515 243704.460515 C 316898.828125 243800.717905 316898.828125 243896.975296 316898.828125 244108.741554 C 316898.828125 244204.998944 316898.828125 244301.256334 316898.828125 244397.513725 Z M 330009.084671 244609.279983 C 330009.084671 244493.771115 330009.084671 244493.771115 330009.084671 244397.513725 C 330009.084671 244301.256334 330009.084671 244204.998944 330009.084671 244204.998944 C 330201.599451 243993.232686 330297.856841 243896.975296 330394.114231 243800.717905 C 330509.6231 243704.460515 330605.88049 243608.203125 330798.39527 243608.203125 C 330894.65266 243492.694257 331106.418919 243492.694257 331202.676309 243396.436867 C 331298.933699 243396.436867 331491.44848 243300.179476 331703.214738 243203.922086 C 331799.472128 243203.922086 331895.729519 243107.664696 331991.986909 242992.155828 C 332107.495777 242895.898438 332107.495777 242799.641047 332203.753167 242607.126267 C 332203.753167 242491.617399 332300.010557 242395.360008 332300.010557 242202.845228 C 332396.267948 242106.587838 332396.267948 241991.07897 332396.267948 241894.821579 C 332492.525338 241702.306799 332492.525338 241490.540541 332608.034206 241105.51098 C 332704.291596 240701.229941 332800.548986 240393.206292 332896.806377 240008.176731 C 332993.063767 239507.638302 333108.572635 239199.614654 333204.830025 238795.333615 C 333301.087416 238391.052576 333397.344806 238198.537796 333397.344806 238006.023015 C 333609.111064 237697.999367 333705.368454 237409.227196 333705.368454 237101.203547 C 333705.368454 236793.179899 333801.625845 236504.407728 333897.883235 236196.384079 C 334205.906883 235503.33087 334398.421664 234791.026182 334706.445312 234097.972973 C 334898.960093 233404.919764 335091.474873 232692.615076 335303.241132 231999.561867 C 335399.498522 231807.047086 335399.498522 231595.280828 335495.755912 231402.766047 C 335495.755912 231190.999789 335592.013302 230998.485008 335707.522171 230805.970228 C 335803.779561 230594.20397 335900.036951 230401.689189 335996.294341 230305.431799 C 336208.0606 230209.174409 336400.57538 230093.665541 336593.09016 230093.665541 C 336901.113809 230093.665541 337093.62859 230209.174409 337209.137458 230305.431799 C 337401.652238 230497.946579 337497.909628 230690.46136 337594.167019 230998.485008 C 337690.424409 231190.999789 337805.933277 231499.023438 337805.933277 231691.538218 C 337902.190667 231999.561867 337902.190667 232192.076647 337998.448057 232307.585515 C 338094.705448 232808.123944 338190.962838 233308.662373 338306.471706 233809.200802 C 338402.729096 234290.487753 338595.243877 234791.026182 338807.010135 235291.564611 L 340905.421242 243107.664696 C 340905.421242 243203.922086 341001.678632 243300.179476 341097.936022 243396.436867 C 341194.193412 243492.694257 341405.959671 243608.203125 341502.217061 243608.203125 C 341694.731841 243704.460515 341906.4981 243704.460515 342002.75549 243800.717905 C 342195.27027 243800.717905 342291.52766 243800.717905 342407.036529 243800.717905 C 342695.808699 243993.232686 342792.06609 244301.256334 342792.06609 244609.279983 C 342792.06609 244994.309544 342695.808699 245302.333193 342503.293919 245398.590583 C 342291.52766 245591.105363 342002.75549 245706.614231 341694.731841 245706.614231 C 341290.450802 245706.614231 340905.421242 245706.614231 340501.140203 245706.614231 C 340096.859164 245706.614231 339808.086993 245591.105363 339403.805954 245591.105363 C 339192.039696 245591.105363 338999.524916 245591.105363 338807.010135 245591.105363 C 338595.243877 245591.105363 338402.729096 245591.105363 338190.962838 245494.847973 C 338094.705448 245398.590583 337902.190667 245302.333193 337805.933277 245206.075802 C 337805.933277 244994.309544 337690.424409 244801.794764 337690.424409 244609.279983 L 337690.424409 244204.998944 C 337805.933277 244108.741554 337902.190667 243993.232686 338094.705448 243896.975296 C 338190.962838 243800.717905 338306.471706 243800.717905 338498.986486 243704.460515 C 338595.243877 243704.460515 338691.501267 243608.203125 338807.010135 243492.694257 C 338999.524916 243492.694257 338999.524916 243396.436867 339095.782306 243203.922086 C 339095.782306 243203.922086 339095.782306 243203.922086 339095.782306 243107.664696 C 338999.524916 242992.155828 338999.524916 242895.898438 338999.524916 242799.641047 C 338999.524916 242703.383657 338999.524916 242607.126267 338903.267525 242491.617399 C 338903.267525 242395.360008 338903.267525 242299.102618 338903.267525 242299.102618 C 338903.267525 242299.102618 338903.267525 242202.845228 338807.010135 242106.587838 C 338807.010135 241991.07897 338807.010135 241798.564189 338691.501267 241702.306799 C 338595.243877 241606.049409 338595.243877 241490.540541 338498.986486 241394.28315 C 338498.986486 241201.76837 338402.729096 241201.76837 338306.471706 241201.76837 L 334898.960093 241201.76837 C 334898.960093 241201.76837 334802.702703 241201.76837 334706.445312 241298.02576 C 334590.936444 241394.28315 334494.679054 241490.540541 334494.679054 241490.540541 L 333897.883235 242799.641047 C 333897.883235 242799.641047 333897.883235 242895.898438 333801.625845 242895.898438 C 333801.625845 242992.155828 333801.625845 243107.664696 333801.625845 243107.664696 C 333801.625845 243300.179476 333897.883235 243492.694257 333994.140625 243608.203125 C 334205.906883 243704.460515 334302.164274 243800.717905 334494.679054 243800.717905 C 334706.445312 243896.975296 334802.702703 243993.232686 334898.960093 244108.741554 C 335091.474873 244301.256334 335091.474873 244493.771115 335091.474873 244801.794764 C 335091.474873 245090.566934 334995.217483 245398.590583 334802.702703 245494.847973 C 334590.936444 245591.105363 334302.164274 245706.614231 333994.140625 245706.614231 C 333801.625845 245706.614231 333609.111064 245706.614231 333397.344806 245706.614231 C 333204.830025 245591.105363 332993.063767 245591.105363 332800.548986 245591.105363 C 332492.525338 245591.105363 332203.753167 245706.614231 331895.729519 245706.614231 C 331606.957348 245802.871622 331395.19109 245802.871622 331106.418919 245802.871622 C 330702.13788 245802.871622 330509.6231 245706.614231 330297.856841 245398.590583 C 330105.342061 245090.566934 330009.084671 244898.052154 330009.084671 244609.279983 Z M 335091.474873 239199.614654 C 335206.983742 239295.872044 335399.498522 239392.129434 335495.755912 239392.129434 C 335707.522171 239392.129434 335803.779561 239392.129434 335996.294341 239392.129434 C 336304.31799 239392.129434 336593.09016 239392.129434 336901.113809 239295.872044 C 337209.137458 239295.872044 337497.909628 239295.872044 337805.933277 239199.614654 L 337902.190667 239103.357264 C 337902.190667 239103.357264 337902.190667 239103.357264 337902.190667 239007.099873 C 337902.190667 239007.099873 337902.190667 238891.591005 337902.190667 238891.591005 C 337902.190667 238795.333615 337902.190667 238602.818834 337805.933277 238294.795186 C 337805.933277 238006.023015 337690.424409 237697.999367 337594.167019 237293.718328 C 337497.909628 237004.946157 337401.652238 236600.665118 337305.394848 236292.64147 C 337093.62859 235907.611909 336997.371199 235599.58826 336901.113809 235291.564611 C 336804.856419 235002.792441 336708.599029 234694.768792 336708.599029 234502.254012 C 336593.09016 234405.996622 336593.09016 234290.487753 336496.83277 234290.487753 C 336496.83277 234290.487753 336400.57538 234290.487753 336400.57538 234405.996622 C 336400.57538 234405.996622 336400.57538 234502.254012 336304.31799 234502.254012 C 336304.31799 234598.511402 336208.0606 234791.026182 336208.0606 235002.792441 C 336092.551731 235291.564611 335996.294341 235503.33087 335900.036951 235695.84565 C 335803.779561 235907.611909 335707.522171 236100.126689 335707.522171 236292.64147 C 335592.013302 236504.407728 335592.013302 236600.665118 335592.013302 236696.922508 C 335399.498522 237004.946157 335303.241132 237409.227196 335206.983742 237794.256757 C 335091.474873 238198.537796 334995.217483 238602.818834 334995.217483 239007.099873 C 334995.217483 239007.099873 334995.217483 239007.099873 334995.217483 239103.357264 C 335091.474873 239199.614654 335091.474873 239199.614654 335091.474873 239199.614654 Z M 346603.858742 244301.256334 C 346603.858742 244801.794764 346796.373522 245090.566934 347104.397171 245302.333193 C 347508.678209 245591.105363 347893.70777 245706.614231 348297.988809 245706.614231 L 348394.246199 245706.614231 C 348394.246199 245706.614231 348490.50359 245706.614231 348606.012458 245591.105363 C 348702.269848 245591.105363 348798.527238 245591.105363 348894.784628 245494.847973 C 349106.550887 245494.847973 349202.808277 245494.847973 349299.065667 245494.847973 C 349395.323057 245398.590583 349491.580448 245398.590583 349491.580448 245398.590583 C 349491.580448 245398.590583 349703.346706 245398.590583 349895.861486 245398.590583 C 349992.118877 245398.590583 350300.142525 245398.590583 350492.657306 245398.590583 C 350704.423564 245398.590583 350896.938345 245302.333193 351108.704603 245302.333193 C 351301.219383 245302.333193 351397.476774 245302.333193 351493.734164 245302.333193 C 351705.500422 245302.333193 351898.015203 245206.075802 351994.272593 245090.566934 C 352206.038851 244898.052154 352206.038851 244705.537373 352206.038851 244493.771115 C 352206.038851 244301.256334 352206.038851 244108.741554 351994.272593 243993.232686 C 351898.015203 243800.717905 351801.757812 243704.460515 351705.500422 243608.203125 C 351493.734164 243492.694257 351397.476774 243396.436867 351301.219383 243300.179476 C 351204.961993 243203.922086 351108.704603 243107.664696 351108.704603 242895.898438 L 351108.704603 242703.383657 C 351397.476774 242106.587838 351705.500422 241606.049409 351994.272593 241105.51098 C 352302.296242 240604.972551 352494.811022 240008.176731 352802.834671 239392.129434 C 352802.834671 239392.129434 352899.092061 239295.872044 352899.092061 239295.872044 C 352995.349451 239295.872044 352995.349451 239295.872044 352995.349451 239295.872044 C 353207.115709 239295.872044 353303.3731 239392.129434 353399.63049 239603.895693 C 353495.88788 239796.410473 353592.14527 240008.176731 353707.654139 240200.691512 C 353803.911529 240393.206292 353900.168919 240701.229941 353900.168919 240893.744721 C 353996.426309 241105.51098 354092.683699 241201.76837 354092.683699 241298.02576 C 354208.192568 241606.049409 354400.707348 241798.564189 354496.964738 242106.587838 C 354708.730997 242395.360008 354804.988387 242607.126267 354997.503167 242895.898438 C 354997.503167 243107.664696 354901.245777 243203.922086 354804.988387 243300.179476 C 354593.222128 243300.179476 354496.964738 243396.436867 354400.707348 243492.694257 C 354208.192568 243608.203125 354092.683699 243704.460515 353900.168919 243896.975296 C 353803.911529 243993.232686 353707.654139 244204.998944 353707.654139 244397.513725 C 353707.654139 244801.794764 353900.168919 244994.309544 354092.683699 245090.566934 C 354400.707348 245206.075802 354708.730997 245302.333193 354997.503167 245302.333193 C 355498.041596 245302.333193 355998.580025 245398.590583 356402.861064 245398.590583 C 356903.399493 245494.847973 357403.937922 245494.847973 357904.476351 245494.847973 C 358308.75739 245494.847973 358597.529561 245398.590583 358905.553209 245206.075802 C 359194.32538 244994.309544 359290.58277 244705.537373 359290.58277 244301.256334 C 359290.58277 243993.232686 359290.58277 243800.717905 359098.06799 243608.203125 C 359001.8106 243492.694257 358905.553209 243492.694257 358693.786951 243396.436867 C 358501.272171 243396.436867 358308.75739 243396.436867 358000.733742 243396.436867 C 357808.218961 243396.436867 357596.452703 243300.179476 357403.937922 243203.922086 C 357403.937922 243203.922086 357307.680532 242992.155828 357095.914274 242703.383657 C 356903.399493 242395.360008 356691.633235 242106.587838 356402.861064 241702.306799 C 356191.094806 241201.76837 355902.322635 240797.487331 355594.298986 240296.948902 C 355305.526816 239796.410473 355093.760557 239392.129434 354804.988387 238891.591005 C 354593.222128 238506.561444 354400.707348 238102.280405 354208.192568 237794.256757 C 354092.683699 237505.484586 353996.426309 237293.718328 353996.426309 237197.460938 C 353996.426309 237101.203547 353996.426309 236908.688767 354092.683699 236793.179899 C 354208.192568 236696.922508 354208.192568 236504.407728 354304.449958 236408.150338 C 354400.707348 236292.64147 354496.964738 236100.126689 354593.222128 236003.869299 C 354708.730997 235907.611909 354708.730997 235792.103041 354804.988387 235695.84565 C 354804.988387 235695.84565 354804.988387 235599.58826 354901.245777 235503.33087 C 354901.245777 235407.07348 354997.503167 235291.564611 354997.503167 235195.307221 C 355093.760557 235099.049831 355093.760557 235002.792441 355209.269426 234906.535051 C 355305.526816 234791.026182 355305.526816 234791.026182 355305.526816 234694.768792 C 355401.784206 234598.511402 355498.041596 234290.487753 355594.298986 234097.972973 C 355690.556377 233809.200802 355902.322635 233597.434544 355998.580025 233308.662373 C 356094.837416 233000.638725 356306.603674 232808.123944 356402.861064 232596.357686 C 356499.118454 232403.842905 356691.633235 232192.076647 356807.142103 232095.819257 C 357095.914274 232095.819257 357307.680532 232095.819257 357596.452703 232095.819257 C 357904.476351 232095.819257 358096.991132 231999.561867 358308.75739 231999.561867 C 358597.529561 231903.304476 358809.295819 231807.047086 358905.553209 231595.280828 C 359098.06799 231499.023438 359194.32538 231306.508657 359194.32538 230902.227618 C 359194.32538 230690.46136 359098.06799 230497.946579 359001.8106 230401.689189 C 358905.553209 230209.174409 358809.295819 230093.665541 358693.786951 229997.40815 C 358501.272171 229997.40815 358308.75739 229901.15076 358096.991132 229901.15076 C 358000.733742 229901.15076 357808.218961 229901.15076 357596.452703 229901.15076 C 357307.680532 229901.15076 357095.914274 229901.15076 356903.399493 229901.15076 C 356691.633235 229901.15076 356402.861064 229997.40815 356191.094806 229997.40815 C 355998.580025 229997.40815 355806.065245 229901.15076 355594.298986 229901.15076 C 355401.784206 229901.15076 355093.760557 229901.15076 354901.245777 229901.15076 C 354708.730997 229901.15076 354593.222128 229901.15076 354400.707348 229901.15076 C 354208.192568 229901.15076 353996.426309 229901.15076 353900.168919 229997.40815 C 353803.911529 230093.665541 353592.14527 230093.665541 353592.14527 230305.431799 C 353495.88788 230401.689189 353399.63049 230594.20397 353399.63049 230805.970228 C 353399.63049 230998.485008 353495.88788 231190.999789 353592.14527 231306.508657 C 353707.654139 231499.023438 353803.911529 231595.280828 353900.168919 231691.538218 C 354092.683699 231807.047086 354208.192568 231903.304476 354304.449958 231999.561867 C 354400.707348 231999.561867 354400.707348 232192.076647 354400.707348 232403.842905 C 354400.707348 232500.100296 354400.707348 232692.615076 354304.449958 233000.638725 C 354208.192568 233193.153505 353996.426309 233501.177154 353900.168919 233809.200802 C 353707.654139 234097.972973 353592.14527 234405.996622 353399.63049 234598.511402 C 353303.3731 234906.535051 353091.606841 235002.792441 352995.349451 235002.792441 C 352899.092061 235002.792441 352802.834671 234906.535051 352706.57728 234694.768792 C 352494.811022 234405.996622 352302.296242 234194.230363 352206.038851 233905.458193 C 351994.272593 233597.434544 351898.015203 233308.662373 351801.757812 233000.638725 C 351705.500422 232692.615076 351609.243032 232500.100296 351609.243032 232403.842905 C 351609.243032 232307.585515 351705.500422 232192.076647 351801.757812 232095.819257 C 351898.015203 231999.561867 351994.272593 231903.304476 352090.529983 231807.047086 C 352206.038851 231807.047086 352302.296242 231691.538218 352398.553632 231499.023438 C 352494.811022 231402.766047 352591.068412 231190.999789 352591.068412 230998.485008 C 352591.068412 230805.970228 352494.811022 230690.46136 352494.811022 230497.946579 C 352494.811022 230305.431799 352302.296242 230209.174409 352090.529983 230093.665541 L 351108.704603 229901.15076 L 347604.9356 229901.15076 C 347296.911951 229901.15076 347104.397171 229997.40815 346892.630912 230209.174409 C 346796.373522 230401.689189 346700.116132 230594.20397 346700.116132 230902.227618 C 346700.116132 231190.999789 346796.373522 231499.023438 347008.13978 231595.280828 C 347104.397171 231807.047086 347296.911951 231903.304476 347604.9356 231999.561867 C 347797.45038 232095.819257 348105.474029 232095.819257 348394.246199 232095.819257 C 348702.269848 232095.819257 348991.042019 232095.819257 349202.808277 232095.819257 C 349395.323057 232192.076647 349607.089316 232307.585515 349703.346706 232500.100296 C 349799.604096 232692.615076 349895.861486 232904.381334 349992.118877 233096.896115 C 350107.627745 233308.662373 350203.885135 233501.177154 350203.885135 233693.691934 C 350300.142525 234001.715583 350396.399916 234194.230363 350492.657306 234290.487753 C 350492.657306 234405.996622 350608.166174 234405.996622 350608.166174 234502.254012 C 350704.423564 234598.511402 350704.423564 234694.768792 350800.680954 234791.026182 C 350896.938345 234906.535051 350896.938345 235002.792441 350993.195735 235099.049831 C 351108.704603 235195.307221 351108.704603 235195.307221 351108.704603 235291.564611 C 351108.704603 235291.564611 351204.961993 235407.07348 351301.219383 235503.33087 C 351301.219383 235599.58826 351397.476774 235695.84565 351493.734164 235907.611909 C 351493.734164 236003.869299 351609.243032 236100.126689 351705.500422 236292.64147 C 351705.500422 236408.150338 351801.757812 236504.407728 351801.757812 236504.407728 C 351898.015203 236600.665118 351898.015203 236696.922508 351898.015203 236793.179899 C 351898.015203 236908.688767 351898.015203 237004.946157 351898.015203 237101.203547 C 351898.015203 237293.718328 351801.757812 237601.741976 351705.500422 237890.514147 C 351493.734164 238294.795186 351301.219383 238602.818834 351108.704603 239007.099873 C 350896.938345 239295.872044 350704.423564 239700.153083 350492.657306 240008.176731 C 350203.885135 240296.948902 350107.627745 240508.71516 349895.861486 240701.229941 C 349799.604096 240893.744721 349607.089316 241201.76837 349607.089316 241490.540541 C 349491.580448 241798.564189 349395.323057 242106.587838 349202.808277 242299.102618 C 349202.808277 242395.360008 349202.808277 242491.617399 349106.550887 242607.126267 C 348991.042019 242703.383657 348894.784628 242799.641047 348894.784628 242895.898438 C 348798.527238 242992.155828 348702.269848 243107.664696 348606.012458 243203.922086 C 348490.50359 243203.922086 348394.246199 243300.179476 348297.988809 243300.179476 L 347296.911951 243300.179476 C 347104.397171 243300.179476 347008.13978 243300.179476 346892.630912 243396.436867 C 346892.630912 243492.694257 346796.373522 243492.694257 346700.116132 243704.460515 C 346700.116132 243800.717905 346603.858742 243896.975296 346603.858742 243993.232686 C 346603.858742 244108.741554 346603.858742 244204.998944 346603.858742 244301.256334 Z M 346603.858742 244301.256334 " transform="matrix(0.000202906,0,0,0.000202906,0.0663559,0)"/>
</g>
</svg>
